<?xml version="1.0" encoding="UTF-8" standalone="no"?>
<!DOCTYPE svg PUBLIC "-//W3C//DTD SVG 1.1//EN" "http://www.w3.org/Graphics/SVG/1.1/DTD/svg11.dtd">
<svg width="100%" height="100%" viewBox="0 0 1709 1709" version="1.1" xmlns="http://www.w3.org/2000/svg" xmlns:xlink="http://www.w3.org/1999/xlink" xml:space="preserve" xmlns:serif="http://www.serif.com/" style="fill-rule:evenodd;clip-rule:evenodd;stroke-linecap:round;stroke-linejoin:round;stroke-miterlimit:1.5;">
    <g transform="matrix(1,0,0,1,-431.068268,-724.993331)">
        <g id="Logo" transform="matrix(1,0,0,1,31.887403,-31.887403)">
            <g id="LogoBackground">
                <g transform="matrix(1,0,0,1,-207.601573,-203.27654)">
                    <path d="M2315.17,1387.254L2315.17,2241.448C2315.17,2477.169 2123.795,2668.545 1888.073,2668.545L1033.879,2668.545C798.158,2668.545 606.782,2477.169 606.782,2241.448L606.782,1387.254C606.782,1151.533 798.158,960.157 1033.879,960.157L1888.073,960.157C2123.795,960.157 2315.17,1151.533 2315.17,1387.254Z" style="fill:rgb(71,140,191);"/>
                </g>
                <g transform="matrix(1.357829,0,0,1.357829,-1209.003363,-1084.474653)">
                    <circle cx="1813.467" cy="1985.19" r="557.929" style="fill:white;"/>
                </g>
            </g>
            <g id="LogoForeground" transform="matrix(1.157256,0,0,1.139752,-312.420101,-204.959238)">
                <g id="Cog">
                    <g id="Cog2D" transform="matrix(1,0,0,1,99.648617,-17.71531)">
                        <g transform="matrix(1,0,0,1,-374.980341,-162.015727)">
                            <path d="M1683.704,1203.485L1701.935,1292.242C1737.219,1297.642 1771.801,1306.908 1805.057,1319.874L1865.225,1252.123C1898.894,1267.432 1930.999,1285.968 1961.091,1307.472L1932.501,1393.454C1960.358,1415.771 1985.674,1441.087 2007.992,1468.944L2093.974,1440.354C2115.478,1470.446 2134.014,1502.552 2149.322,1536.221L2081.572,1596.389C2094.538,1629.645 2103.804,1664.227 2109.203,1699.51L2197.961,1717.742C2201.538,1754.554 2201.538,1791.627 2197.961,1828.439L2109.203,1846.671C2103.804,1881.954 2094.538,1916.536 2081.572,1949.792L2149.322,2009.96C2134.014,2043.629 2115.478,2075.735 2093.974,2105.826L2007.992,2077.237C1985.674,2105.094 1960.358,2130.409 1932.501,2152.727L1961.091,2238.709C1930.999,2260.213 1898.894,2278.749 1865.225,2294.058L1805.057,2226.307C1771.801,2239.273 1737.219,2248.539 1701.935,2253.938L1683.704,2342.696C1646.891,2346.273 1609.819,2346.273 1573.007,2342.696L1554.775,2253.938C1519.492,2248.539 1484.909,2239.273 1451.653,2226.307L1391.486,2294.058C1357.817,2278.749 1325.711,2260.213 1295.619,2238.709L1324.209,2152.727C1296.352,2130.409 1271.036,2105.094 1248.719,2077.237L1162.737,2105.826C1141.233,2075.735 1122.696,2043.629 1107.388,2009.96L1175.139,1949.792C1162.173,1916.536 1152.906,1881.954 1147.507,1846.671L1058.75,1828.439C1055.173,1791.627 1055.173,1754.554 1058.75,1717.742L1147.507,1699.51C1152.906,1664.227 1162.173,1629.645 1175.139,1596.389L1107.388,1536.221C1122.696,1502.552 1141.233,1470.446 1162.737,1440.354L1248.719,1468.944C1271.036,1441.087 1296.352,1415.771 1324.209,1393.454L1295.619,1307.472C1325.711,1285.968 1357.817,1267.432 1391.486,1252.123L1451.653,1319.874C1484.909,1306.908 1519.492,1297.642 1554.775,1292.242L1573.007,1203.485C1609.819,1199.908 1646.891,1199.908 1683.704,1203.485ZM1628.355,1658.633C1691.526,1658.633 1742.813,1709.92 1742.813,1773.09C1742.813,1836.261 1691.526,1887.548 1628.355,1887.548C1565.184,1887.548 1513.898,1836.261 1513.898,1773.09C1513.898,1709.92 1565.184,1658.633 1628.355,1658.633Z" style="fill:rgb(71,140,191);"/>
                        </g>
                        <rect x="1110.146" y="1442.336" width="340.134" height="356.078" style="fill:rgb(71,140,191);"/>
                    </g>
                </g>
                <g id="Godot-Face" serif:id="Godot Face" transform="matrix(1,0,0,1,-678.929917,598.321004)">
                    <path d="M2032.023,937.077L2031.559,1030.37" style="fill:none;stroke:white;stroke-width:61.89px;"/>
                    <path d="M1558.636,1138.207L1729.837,1155.214L1736.639,1249.317L1924.847,1262.923L1939.586,1174.488L2124.392,1175.622L2137.997,1262.923L2326.205,1249.317L2332.899,1156.552L2509.877,1138.207" style="fill:none;stroke:white;stroke-width:34.66px;"/>
                    <g id="EYE" transform="matrix(1,0,0,1,807.401037,-435.13234)">
                        <g transform="matrix(0.278907,0,0,0.278907,569.921256,906.560528)">
                            <circle cx="1448.36" cy="1714.369" r="383.648" style="fill:white;"/>
                        </g>
                        <g transform="matrix(0.699733,0,0,0.699733,113.951405,206.837978)">
                            <circle cx="1243.526" cy="1691.117" r="101.31" style="fill:rgb(66,66,66);"/>
                        </g>
                    </g>
                    <g id="EYE1" serif:id="EYE" transform="matrix(1,0,0,1,807.307146,-435.13234)">
                        <g transform="matrix(0.277692,0,0,0.277692,1072.10122,908.170724)">
                            <circle cx="1448.36" cy="1714.369" r="383.648" style="fill:white;"/>
                        </g>
                        <g transform="matrix(0.689808,0,0,0.689808,606.295343,223.87301)">
                            <circle cx="1243.526" cy="1691.117" r="101.31" style="fill:rgb(66,66,66);"/>
                        </g>
                    </g>
                </g>
            </g>
        </g>
    </g>
</svg>
